<?xml version="1.0" encoding="UTF-8" standalone="no"?>
<!-- Created with Inkscape (http://www.inkscape.org/) -->

<svg
   xmlns:dc="http://purl.org/dc/elements/1.1/"
   xmlns:cc="http://creativecommons.org/ns#"
   xmlns:rdf="http://www.w3.org/1999/02/22-rdf-syntax-ns#"
   xmlns:svg="http://www.w3.org/2000/svg"
   xmlns="http://www.w3.org/2000/svg"
   xmlns:sodipodi="http://sodipodi.sourceforge.net/DTD/sodipodi-0.dtd"
   xmlns:inkscape="http://www.inkscape.org/namespaces/inkscape"
   width="400"
   height="300"
   id="svg2"
   version="1.1"
   inkscape:version="0.48.3.1 r9886"
   sodipodi:docname="omega.svg">
  <defs
     id="defs4" />
  <sodipodi:namedview
     id="base"
     pagecolor="#ffffff"
     bordercolor="#666666"
     borderopacity="1.0"
     inkscape:pageopacity="0.0"
     inkscape:pageshadow="2"
     inkscape:zoom="1.979899"
     inkscape:cx="100.08479"
     inkscape:cy="93.094551"
     inkscape:document-units="px"
     inkscape:current-layer="layer1"
     showgrid="false"
     showborder="true"
     inkscape:showpageshadow="false"
     inkscape:window-width="1918"
     inkscape:window-height="1023"
     inkscape:window-x="0"
     inkscape:window-y="26"
     inkscape:window-maximized="0">
    <inkscape:grid
       type="xygrid"
       id="grid2989"
       empspacing="5"
       visible="true"
       enabled="true"
       snapvisiblegridlinesonly="true" />
  </sodipodi:namedview>
  <metadata
     id="metadata7">
    <rdf:RDF>
      <cc:Work
         rdf:about="">
        <dc:format>image/svg+xml</dc:format>
        <dc:type
           rdf:resource="http://purl.org/dc/dcmitype/StillImage" />
        <dc:title></dc:title>
      </cc:Work>
    </rdf:RDF>
  </metadata>
  <g
     inkscape:label="Ebene 1"
     inkscape:groupmode="layer"
     id="layer1"
     transform="translate(0,-752.36218)">
    <path
       d="M 0,0 0,300 M 10,0 10,300 M 20,0 20,300 M 30,0 30,300 M 40,0 40,300 M 50,0 50,300 M 60,0 60,300 M 70,0 70,300 M 80,0 80,300 M 90,0 90,300 M 100,0 100,300 M 110,0 110,300 M 120,0 120,300 M 130,0 130,300 M 140,0 140,300 M 150,0 150,300 M 160,0 160,300 M 170,0 170,300 M 180,0 180,300 M 190,0 190,300 M 200,0 200,300 M 210,0 210,300 M 220,0 220,300 M 230,0 230,300 M 240,0 240,300 M 250,0 250,300 M 260,0 260,300 M 270,0 270,300 M 280,0 280,300 M 290,0 290,300 M 300,0 300,300 M 310,0 310,300 M 320,0 320,300 M 330,0 330,300 M 340,0 340,300 M 350,0 350,300 M 360,0 360,300 M 370,0 370,300 M 380,0 380,300 M 390,0 390,300 M 400,0 400,300 M 0,0 400,0 M 0,10 400,10 M 0,20 400,20 M 0,30 400,30 M 0,40 400,40 M 0,50 400,50 M 0,60 400,60 M 0,70 400,70 M 0,80 400,80 M 0,90 400,90 m -400,10 400,0 m -400,10 400,0 m -400,10 400,0 m -400,10 400,0 m -400,10 400,0 m -400,10 400,0 m -400,10 400,0 m -400,10 400,0 m -400,10 400,0 m -400,10 400,0 m -400,10 400,0 m -400,10 400,0 m -400,10 400,0 m -400,10 400,0 m -400,10 400,0 m -400,10 400,0 m -400,10 400,0 m -400,10 400,0 m -400,10 400,0 m -400,10 400,0 m -400,10 400,0"
       style="fill:none;fill-opacity:0.75000000;fill-rule:evenodd;stroke:#000000;stroke-linecap:butt;stroke-linejoin:miter;stroke-opacity:1.0000000;stroke-width:1pt"
       id="path2987" />
    <path
       style="fill:none;stroke:#94b7db;stroke-opacity:0.47843137"
       d="m 14.15625,283.15625 0,0.0625 c 1.428526,-0.33077 17.89179,1.93143 40.573445,-4.84026 23.592984,-7.04377 59.671795,-27.24876 69.520305,-33.44099 9.84851,-6.19223 21.77001,-30.13638 60.03125,-64.6875 24.8299,-22.42219 106.72792,-61.2855 135.28125,-75.625 25.80881,-12.961203 44.28275,-30.783164 57.3125,-48.125 3.34423,-4.450968 6.33969,-8.858996 9,-13.15625"
       transform="translate(0,752.36218)"
       id="path3772"
       inkscape:connector-curvature="0"
       sodipodi:nodetypes="ccsssssc" />
    <path
       style="fill:none;stroke:#000000;stroke-width:2;stroke-miterlimit:4;stroke-opacity:1"
       d="m 385,1037.3622 -370,0 0,-270.00002"
       id="rect2993"
       inkscape:connector-curvature="0"
       sodipodi:nodetypes="ccc" />
    <path
       style="fill:none;stroke:#d40000;stroke-width:1px;stroke-linecap:butt;stroke-linejoin:miter;stroke-opacity:1"
       d="m 15.152288,285.85786 c 14.94562,-54.83822 35.327016,-71.66631 57.738385,-37.715 22.782751,34.51392 22.484494,57.58923 85.472947,-55.34097 46.81432,-83.93205 74.65646,-51.30363 99.69476,-81.77214 49.08181,-59.726471 89.09118,-48.658027 127.31482,-75.689717"
       id="path3764"
       inkscape:connector-curvature="0"
       transform="translate(0,752.36218)"
       sodipodi:nodetypes="csssc" />
    <path
       style="fill:none;stroke:#003366;stroke-width:1px;stroke-linecap:butt;stroke-linejoin:miter;stroke-opacity:1"
       d="M 14.142136,286.36294 C 31.672959,269.83007 88.907398,261.84491 98.797516,240.60049 139.23853,153.7314 266.79773,85.545706 380.32243,22.20805"
       id="path3766"
       inkscape:connector-curvature="0"
       transform="translate(0,752.36218)"
       sodipodi:nodetypes="csc" />
    <text
       xml:space="preserve"
       style="font-size:13px;font-style:normal;font-weight:normal;line-height:125%;letter-spacing:0px;word-spacing:0px;fill:#000000;fill-opacity:1;stroke:none;font-family:Bitstream Charter;-inkscape-font-specification:Bitstream Charter;font-stretch:normal;font-variant:normal"
       x="227.28432"
       y="202.0152"
       id="text3774"
       sodipodi:linespacing="125%"
       transform="translate(0,752.36218)"><tspan
         sodipodi:role="line"
         id="tspan3776"
         x="227.28432"
         y="202.0152" /></text>
    <text
       xml:space="preserve"
       style="font-size:19.12343216px;font-style:normal;font-variant:normal;font-weight:normal;font-stretch:normal;line-height:125%;letter-spacing:0px;word-spacing:0px;fill:#d40000;fill-opacity:1;stroke:none;font-family:Bitstream Charter;-inkscape-font-specification:Bitstream Charter"
       x="39.496288"
       y="957.02795"
       id="text3778"
       sodipodi:linespacing="125%"><tspan
         sodipodi:role="line"
         id="tspan3780"
         x="39.496288"
         y="957.02795">f(x)</tspan></text>
    <text
       xml:space="preserve"
       style="font-size:24.10888481px;font-style:normal;font-variant:normal;font-weight:normal;font-stretch:normal;line-height:125%;letter-spacing:0px;word-spacing:0px;fill:#003366;fill-opacity:1;stroke:none;font-family:Bitstream Charter;-inkscape-font-specification:Bitstream Charter"
       x="134.48085"
       y="1011.1528"
       id="text3782"
       sodipodi:linespacing="125%"><tspan
         sodipodi:role="line"
         id="tspan3784"
         x="134.48085"
         y="1011.1528">g(x)</tspan></text>
  </g>
</svg>
